<svg xmlns="http://www.w3.org/2000/svg" width="128" height="128" viewBox="0 0 128 128">
<g>
<path d="M 29.79 118.02 C22.78,115.89 16.98,108.12 17.02,100.93 C17.07,93.29 23.61,84.70 30.28,83.50 C32.05,83.18 50.83,83.05 72.00,83.21 L 110.50 83.50 L 110.50 86.50 L 110.50 89.50 L 70.95 90.00 C35.45,90.45 31.13,90.68 28.73,92.26 C23.58,95.63 23.48,104.32 28.54,108.75 C30.91,110.83 32.08,111.00 43.65,111.00 C55.35,111.00 56.22,111.13 56.71,113.00 C57.36,115.48 57.52,115.48 61.10,112.93 L 64.00 110.86 L 66.90 112.93 C70.48,115.48 70.64,115.48 71.30,112.98 C71.81,111.03 72.48,110.96 90.55,111.23 C107.12,111.47 109.41,111.70 110.39,113.25 C111.19,114.53 111.19,115.47 110.39,116.75 C109.37,118.36 106.26,118.51 70.89,118.67 C49.78,118.76 31.28,118.47 29.79,118.02 ZM 59.00 106.62 L 59.00 102.00 L 64.00 102.00 L 69.00 102.00 L 69.00 106.62 L 69.00 111.23 L 66.50 109.59 C64.18,108.07 63.82,108.07 61.50,109.59 L 59.00 111.23 L 59.00 106.62 ZM 31.50 107.81 C26.64,104.98 25.64,100.00 29.07,95.63 L 31.15 93.00 L 68.68 93.00 C102.50,93.00 106.15,93.16 105.61,94.58 C105.27,95.45 105.00,96.80 105.00,97.58 C105.00,98.78 100.04,99.00 73.58,99.00 C56.30,99.00 41.45,99.27 40.59,99.60 C37.08,100.95 40.59,102.00 48.62,102.00 L 57.13 102.00 L 56.81 105.25 L 56.50 108.50 L 45.00 108.74 C37.65,108.89 32.78,108.55 31.50,107.81 ZM 71.67 108.33 C71.30,107.97 71.00,106.39 71.00,104.83 L 71.00 102.00 L 88.00 102.00 C100.93,102.00 105.00,102.30 105.01,103.25 C105.02,103.94 105.30,105.51 105.63,106.75 L 106.23 109.00 L 89.28 109.00 C79.96,109.00 72.03,108.70 71.67,108.33 ZM 104.12 69.09 C102.96,68.36 103.02,67.44 104.50,63.36 C105.47,60.69 106.54,54.94 106.88,50.58 C107.27,45.60 107.96,42.51 108.75,42.25 C109.67,41.94 110.00,43.63 110.00,48.56 C110.00,52.93 110.75,57.34 112.12,61.11 C113.29,64.31 113.98,67.62 113.65,68.46 C113.00,70.16 106.49,70.59 104.12,69.09 ZM 51.00 68.42 C43.44,67.08 35.93,64.58 34.42,62.91 C32.78,61.10 32.78,60.90 34.46,59.04 C38.30,54.80 45.26,53.50 64.00,53.51 C82.90,53.51 88.06,54.40 92.73,58.48 C95.50,60.88 95.50,60.88 93.50,62.86 C89.98,66.34 81.51,68.15 67.00,68.52 C59.58,68.70 52.38,68.66 51.00,68.42 ZM 33.00 46.51 C33.00,35.98 33.63,34.70 39.95,32.50 C55.06,27.23 88.90,29.25 93.75,35.72 C94.54,36.77 95.00,40.78 95.00,46.60 L 95.00 55.81 L 90.13 53.96 C77.77,49.26 52.92,48.97 39.79,53.37 L 33.00 55.65 L 33.00 46.51 ZM 20.51 40.32 C9.83,36.19 8.34,35.20 10.20,33.45 C10.91,32.78 23.35,26.99 37.84,20.58 L 64.17 8.94 L 90.34 20.58 C104.73,26.99 117.09,32.78 117.80,33.45 C119.62,35.16 118.28,36.05 108.00,39.98 C103.32,41.77 98.94,43.46 98.25,43.73 C97.36,44.07 97.00,42.90 97.00,39.68 C97.00,34.18 94.57,31.86 86.09,29.23 C77.89,26.69 49.93,26.76 41.50,29.34 C33.40,31.82 31.00,34.18 31.00,39.67 C31.00,42.05 30.66,43.95 30.25,43.90 C29.84,43.84 25.45,42.23 20.51,40.32 Z" fill="rgba(255,255,255,1)"/>
</g>
</svg>